# xmcd CD database file
#
# Track frame offsets:
#	150
#	10058
#	20715
#	38319
#	61899
#	77653
#	91561
#	122503
#	142938
#	158597
#	172902
#	191685
#	207708
#
# Disc length: 2986 seconds
#
# Revision: 0
# Processed by: cddbd v1.5.2PL0 Copyright (c) Steve Scherf et al.
# Submitted via: CDex 1.70beta2
#
DISCID=930ba80d
DTITLE=Varios - Smooth Jazz Cafe CD3
DYEAR=2008
DGENRE=Jazz
TTITLE0=Influencia do jazz
TTITLE1=O qeu gosto de voce
TTITLE2=Morning dance
TTITLE3=So danca samba
TTITLE4=Desafinado
TTITLE5=Meditacao
TTITLE6=Hi-fly
TTITLE7=Ipanema afternoon
TTITLE8=Aguas de Marco
TTITLE9=All the things You're
TTITLE10=My fault
TTITLE11=O'barquinho
TTITLE12=Garota de Ipanema
EXTD=YEAR: 2008
EXTT0=
EXTT1=
EXTT2=
EXTT3=
EXTT4=
EXTT5=
EXTT6=
EXTT7=
EXTT8=
EXTT9=
EXTT10=
EXTT11=
EXTT12=
PLAYORDER=
